<?xml version="1.0" encoding="utf-8"?>
<!-- Generator: Adobe Illustrator 18.0.0, SVG Export Plug-In . SVG Version: 6.00 Build 0)  -->
<!DOCTYPE svg PUBLIC "-//W3C//DTD SVG 1.1//EN" "http://www.w3.org/Graphics/SVG/1.1/DTD/svg11.dtd">
<svg version="1.1" id="Layer_1" xmlns="http://www.w3.org/2000/svg" xmlns:xlink="http://www.w3.org/1999/xlink" x="0px" y="0px"
	 viewBox="0 0 64 64" enable-background="new 0 0 64 64" xml:space="preserve">
<g>
	<g>
		<g>
			<g>
				<polygon points="47,0 47,10 56,10 				"/>
			</g>
		</g>
	</g>
	<g>
		<g>
			<g>
				<path d="M30,27c-5,0-9,4-9,9s4,9,9,9s9-4,9-9S35,27,30,27z"/>
			</g>
		</g>
		<g>
			<g>
				<path d="M43,14V0H10C8.9,0,8,0.9,8,2.1v59.9c0,1.1,0.9,2.1,2,2.1h43.7c1.1,0,2.3-0.9,2.3-2.1V14H43z M47.6,56.4l-9.9-9.9
					C35.5,48.1,32.9,49,30,49c-7.2,0-13-5.8-13-13s5.8-13,13-13s13,5.8,13,13c0,2.9-0.9,5.5-2.5,7.7l9.9,9.9L47.6,56.4z"/>
			</g>
		</g>
	</g>
</g>
</svg>
