<?xml version="1.0" encoding="utf-8"?>
<!-- Generator: Adobe Illustrator 18.0.0, SVG Export Plug-In . SVG Version: 6.00 Build 0)  -->
<!DOCTYPE svg PUBLIC "-//W3C//DTD SVG 1.1//EN" "http://www.w3.org/Graphics/SVG/1.1/DTD/svg11.dtd">
<svg version="1.1" id="Layer_1" xmlns="http://www.w3.org/2000/svg" xmlns:xlink="http://www.w3.org/1999/xlink" x="0px" y="0px"
	 viewBox="0 0 64 64" enable-background="new 0 0 64 64" xml:space="preserve">
<g>
	<path d="M58,36c0-14.3-11.7-26-26-26S6,21.7,6,36c0,6.4,2.4,12.4,6.3,16.9l-7.7,7.7l2.8,2.8l7.7-7.7C19.6,59.6,25.6,62,32,62
		s12.4-2.4,16.9-6.3l7.7,7.7l2.8-2.8l-7.7-7.7C55.6,48.4,58,42.4,58,36z M32,58c-12.1,0-22-9.9-22-22s9.9-22,22-22s22,9.9,22,22
		S44.1,58,32,58z"/>
	<polygon points="34,22 30,22 30,39 38.8,45.6 41.2,42.4 34,37 	"/>
	<path d="M22.8,5.1l-1.4-1.4C19,1.3,15.9,0,12.5,0S6,1.3,3.7,3.7c-4.9,4.9-4.9,12.8,0,17.7l1.4,1.4L22.8,5.1z M6.5,6.5
		c1.6-1.6,3.8-2.5,6-2.5c1.6,0,3.1,0.4,4.5,1.3L5.3,17C3.2,13.7,3.7,9.3,6.5,6.5z"/>
	<path d="M60.3,3.7C58,1.3,54.8,0,51.5,0S45,1.3,42.6,3.7l-1.4,1.4l17.7,17.7l1.4-1.4C65.2,16.5,65.2,8.6,60.3,3.7z M58.7,17L47,5.3
		C48.3,4.4,49.9,4,51.5,4c2.3,0,4.4,0.9,6,2.5C60.3,9.3,60.8,13.7,58.7,17z"/>
</g>
</svg>
