<?xml version="1.0" encoding="utf-8"?>
<!-- Generator: Adobe Illustrator 18.0.0, SVG Export Plug-In . SVG Version: 6.00 Build 0)  -->
<!DOCTYPE svg PUBLIC "-//W3C//DTD SVG 1.1//EN" "http://www.w3.org/Graphics/SVG/1.1/DTD/svg11.dtd">
<svg version="1.1" id="Layer_1" xmlns="http://www.w3.org/2000/svg" xmlns:xlink="http://www.w3.org/1999/xlink" x="0px" y="0px"
	 viewBox="0 0 64 64" enable-background="new 0 0 64 64" xml:space="preserve">
<g>
	<g>
		<g>
			<g>
				<g>
					<polygon points="47.1,0 47,10 56,10 					"/>
				</g>
			</g>
		</g>
		<g>
			<g>
				<path d="M43,14V0H18c-1.1,0-2,0.9-2,2.1V52c0,1.1,0.9,2,2,2h35.7c1.1,0,2.3-0.9,2.3-2V14H43z M50,43H22v-4h28V43z M50,35H22v-4
					h28V35z M50,27H22v-4h28V27z"/>
			</g>
		</g>
	</g>
	<g>
		<g>
			<g>
				<g>
					<path d="M15,58c-1.7,0-3-1.3-3-3V6H8C6.9,6,6,6.9,6,8.1V62c0,1.1,0.9,2,2,2h39.7c1.1,0,2.3-0.9,2.3-2v-4H15z"/>
				</g>
			</g>
		</g>
	</g>
</g>
</svg>
