<?xml version="1.0" encoding="utf-8"?>
<!-- Generator: Adobe Illustrator 18.0.0, SVG Export Plug-In . SVG Version: 6.00 Build 0)  -->
<!DOCTYPE svg PUBLIC "-//W3C//DTD SVG 1.1//EN" "http://www.w3.org/Graphics/SVG/1.1/DTD/svg11.dtd">
<svg version="1.1" id="Layer_1" xmlns="http://www.w3.org/2000/svg" xmlns:xlink="http://www.w3.org/1999/xlink" x="0px" y="0px"
	 viewBox="0 0 64 64" enable-background="new 0 0 64 64" xml:space="preserve">
<g>
	<path fill="#231F20" d="M48.1,34H34v9.6c4.3,0.2,8.4,0.9,12.2,2.2C47.3,42.2,47.9,38.1,48.1,34z"/>
	<path fill="#231F20" d="M17.8,45.9c3.8-1.3,8-2,12.2-2.2V34H15.9C16.1,38.1,16.7,42.2,17.8,45.9z"/>
	<path fill="#231F20" d="M50,47.3c2.6,1.2,5.1,2.6,7.3,4.3c3.8-4.9,6.2-11,6.6-17.6H52.1C51.9,38.7,51.2,43.2,50,47.3z"/>
	<path fill="#231F20" d="M11.9,34H0.1c0.4,6.6,2.8,12.7,6.6,17.6c2.2-1.7,4.6-3.1,7.3-4.3C12.8,43.2,12.1,38.7,11.9,34z"/>
	<path fill="#231F20" d="M14,16.7c-2.6-1.2-5.1-2.6-7.3-4.3c-3.8,4.9-6.2,11-6.6,17.6h11.8C12.1,25.3,12.8,20.8,14,16.7z"/>
	<path fill="#231F20" d="M52.1,30h11.8c-0.4-6.6-2.8-12.7-6.6-17.6c-2.2,1.7-4.6,3.1-7.3,4.3C51.2,20.8,51.9,25.3,52.1,30z"/>
	<path fill="#231F20" d="M21.7,1.7C17,3.3,12.8,5.9,9.4,9.4c1.8,1.3,3.8,2.5,5.9,3.5C16.9,8.6,19.1,4.8,21.7,1.7z"/>
	<path fill="#231F20" d="M42.3,62.3c4.7-1.6,8.9-4.3,12.4-7.7c-1.8-1.3-3.8-2.5-5.9-3.5C47.1,55.4,44.9,59.2,42.3,62.3z"/>
	<path fill="#231F20" d="M29.5,63.9c0.2,0,0.3,0,0.5,0V47.7c-3.8,0.2-7.6,0.9-11,2C21.4,56,25.1,61.1,29.5,63.9z"/>
	<path fill="#231F20" d="M34,47.7v16.3c0.2,0,0.3,0,0.5,0c4.5-2.8,8.1-7.9,10.5-14.2C41.6,48.5,37.8,47.8,34,47.7z"/>
	<path fill="#231F20" d="M54.6,9.4C51.2,5.9,47,3.3,42.3,1.7c2.6,3.1,4.8,6.9,6.5,11.2C50.9,11.9,52.9,10.7,54.6,9.4z"/>
	<path fill="#231F20" d="M9.4,54.6c3.4,3.4,7.7,6.1,12.4,7.7c-2.6-3.1-4.8-6.9-6.5-11.2C13.1,52.1,11.1,53.3,9.4,54.6z"/>
	<path fill="#231F20" d="M34.5,0.1c-0.2,0-0.3,0-0.5,0v16.3c3.8-0.2,7.6-0.9,11-2C42.6,8,38.9,2.9,34.5,0.1z"/>
	<path fill="#231F20" d="M19,14.3c3.4,1.1,7.2,1.8,11,2V0.1c-0.2,0-0.3,0-0.5,0C25.1,2.9,21.4,8,19,14.3z"/>
	<path fill="#231F20" d="M46.2,18.1c-3.8,1.3-8,2-12.2,2.2V30h14.1C47.9,25.9,47.3,21.8,46.2,18.1z"/>
	<path fill="#231F20" d="M15.9,30H30v-9.6c-4.3-0.2-8.4-0.9-12.2-2.2C16.7,21.8,16.1,25.9,15.9,30z"/>
</g>
</svg>
